<?xml version="1.0" encoding="UTF-8"?>
<svg width="255px" height="40px" viewBox="0 0 255 40" version="1.1" xmlns="http://www.w3.org/2000/svg" xmlns:xlink="http://www.w3.org/1999/xlink">
    <!-- Generator: Sketch 40.2 (33826) - http://www.bohemiancoding.com/sketch -->
    <title>logo</title>
    <desc>Created with Sketch.</desc>
    <defs></defs>
    <g id="Page-1" stroke="none" stroke-width="1" fill="none" fill-rule="evenodd">
        <g id="logo" fill="#000000">
            <g id="Page-1">
                <g id="spiral" transform="translate(32.233146, 8.288288)">
                    <g id="Layer_4" transform="translate(0.000000, -0.000000)">
                        <path d="M18.6028024,0.185101265 C15.3908466,-0.632679892 15.9351679,2.23380383 16.8055819,2.75731527 C17.6568677,3.26924034 24.8502344,4.85172184 26.209966,15.1665971 C27.7503444,26.8502274 9.80575958,34.798236 4.02399301,22.0159052 C-1.15745656,10.5615566 11.4094357,4.05470796 18.0814589,9.43435128 C23.3547795,13.6868293 20.6119416,22.6227663 14.9523259,23.0942393 C6.74690898,23.7773941 8.11429988,16.5568411 8.52218366,15.2397636 C9.20361705,13.0409194 12.8213534,11.4014682 15.0417762,13.6143845 C16.2532442,14.8213714 15.7200745,17.0099924 14.7027858,17.5985719 C14.862201,17.2793254 14.9523259,16.919306 14.9523259,16.537477 C14.9523259,15.2331085 13.9057893,14.1758623 12.6146335,14.1758623 C11.3923712,14.1758623 10.3897263,15.1237796 10.2863465,16.3314882 C9.8328645,17.2902302 10.2741632,21.4558706 14.2823615,20.97666 C19.8250251,20.3135508 20.8865231,13.8622686 15.9222305,10.5182982 C12.3327103,8.10043546 5.47730223,10.646951 5.13620853,16.4720882 C4.79515448,22.2971853 9.24155603,27.6789535 16.6089024,25.760347 C25.6896543,23.3958858 26.7246425,7.73652728 16.2640782,5.0300076 C4.60899155,2.01478537 -0.24946074,12.2315974 0.017143977,17.6253128 C0.236404331,22.0553148 2.58104161,31.279588 13.4729039,31.314748 C22.0757674,31.3421705 27.8223729,25.9466911 28.8657744,18.0556121 C30.1924087,8.02342018 21.5432723,0.933644847 18.6028024,0.185101265 L18.6028024,0.185101265 L18.6028024,0.185101265 Z" id="Shape"></path>
                    </g>
                </g>
                <path d="M13.5379213,1.02702703 C11.3890449,1.02702703 9.93855337,0.810810811 8.91783708,0.648648649 C7.89712079,0.432432432 7.30617978,0.27027027 6.9301264,0.27027027 C3.86797753,0.27027027 0,6.27027027 0,10.8648649 C0,12.8108108 1.23560393,14.7567568 3.33075843,14.7567568 C7.68223315,14.7567568 8.86411517,8.37837838 11.2816011,8.37837838 C12.0337079,8.37837838 13.161868,8.32432432 12.9469803,14 L12.5172051,25.9459459 C12.4634831,27.2972973 12.2485955,30.5405405 11.7113764,31.6756757 C10.6369382,33.7297297 7.30617978,32.5945946 7.30617978,35.4594595 C7.30617978,39.6216216 17.352177,39.5135135 20.0919944,39.5135135 C30.1379916,39.5135135 31.1587079,37.1351351 31.1587079,35.4594595 C31.1587079,31.6756757 26.2162921,34.7567568 26.2162921,28.3243243 L26.2162921,11.7297297 C26.2162921,11.2972973 26.0014045,8.37837838 28.096559,8.37837838 C30.8363764,8.37837838 30.7826545,14.7567568 35.4564607,14.7567568 C38.1962781,14.7567568 39.5930478,12.972973 39.5930478,10.2702703 C39.5930478,4.43243243 35.241573,0.27027027 33.1464185,0.27027027 C32.1257022,0.27027027 31.695927,0.432432432 30.9438202,0.648648649 C30.1379916,0.810810811 29.0635534,1.02702703 26.7535112,1.02702703 L13.5379213,1.02702703 L13.5379213,1.02702703 Z M64.8423455,25.7837838 C64.8423455,27.2972973 64.6811798,30.3783784 64.2514045,31.7297297 C63.6604635,33.6216216 61.1892556,33.6216216 61.1892556,35.8918919 C61.1892556,39.6216216 68.4954354,39.5135135 70.9666433,39.5135135 C76.8760534,39.5135135 81.6035815,39.2432432 81.6035815,35.8378378 C81.6035815,32.5945946 77.5207163,34.0540541 77.1983848,31.6756757 C76.9297753,29.6216216 76.7686096,27.3513514 76.7686096,25.7297297 C76.7686096,24.7567568 76.5,21.1351351 78.0042135,21.1351351 C79.4009831,21.1351351 80.3679775,24.2162162 83.8599017,24.2162162 C87.4055478,24.2162162 90.4676966,21.3513514 90.4676966,17.7297297 C90.4676966,14.1621622 88.1039326,11.4594595 84.5045646,11.4594595 C79.8844803,11.4594595 79.0786517,15.7297297 77.7893258,15.7297297 C76.8760534,15.7297297 76.9297753,14.4864865 76.8760534,13.8378378 C76.6611657,12 76.6074438,11.4594595 74.5660112,11.4594595 C74.082514,11.4594595 61.5115871,12.6486486 61.5115871,16.9189189 C61.5115871,20.2162162 64.8423455,17.2432432 64.8423455,22.5405405 L64.8423455,25.7837838 L64.8423455,25.7837838 Z M100.60323,22.4324324 C106.566362,27.2432432 113.926264,26.2702703 113.926264,30.1621622 C113.926264,32.2162162 110.971559,32.8108108 109.789677,32.8108108 C99.9048455,32.8108108 100.549508,24.2162162 96.7352528,24.2162162 C95.1235955,24.2162162 94.4789326,25.6756757 94.4789326,27.1351351 C94.4789326,29.8918919 95.7145365,35.6216216 98.2931882,37.0810811 C101.355337,38.7567568 107.425913,39.6756757 110.971559,39.6756757 C123.488764,39.6756757 128.646067,32.5405405 128.646067,26.2162162 C128.646067,22.1621622 126.980688,19.4594595 123.64993,17.2432432 C117.418188,13.0810811 110.058287,14.2162162 110.058287,9.94594595 C110.058287,8 111.83111,7.24324324 113.496489,7.24324324 C119.083567,7.24324324 121.178722,13.4054054 124.77809,13.4054054 C126.765801,13.4054054 127.947683,11.5675676 127.947683,9.72972973 C127.947683,5.18918919 123.864817,1.02702703 122.038272,1.02702703 C120.910112,1.02702703 120.158006,1.78378378 119.405899,1.78378378 C118.60007,1.78378378 114.732093,0.27027027 111.29389,0.27027027 C100.87184,0.27027027 95.4996489,7.24324324 95.4996489,12.8648649 C95.4996489,16.7567568 97.6485253,20.0540541 100.60323,22.4324324 L100.60323,22.4324324 L100.60323,22.4324324 Z M145.389396,19.1891892 C145.389396,17.2432432 145.49684,17.1891892 147.377107,17.1891892 L151.083919,17.1891892 C153.179073,17.1891892 153.555126,16.972973 153.555126,13.8918919 C153.555126,11.4594595 153.555126,11.2972973 151.245084,11.2972973 L147.484551,11.2972973 C146.087781,11.2972973 145.711728,11.2972973 145.550562,10.8648649 C145.281952,10.2162162 145.389396,8.54054054 145.389396,6.86486486 C145.389396,4.37837838 145.281952,4.59459459 143.133076,4.59459459 C141.521419,4.59459459 141.57514,4.43243243 140.339537,5.18918919 L128.090941,13.027027 C127.446278,13.4594595 127.607444,14.0540541 127.607444,14.8108108 C127.607444,16.0540541 127.5,16.5945946 127.876053,16.972973 C128.144663,17.2432432 128.843048,17.1891892 130.239817,17.1891892 C131.475421,17.1891892 132.066362,17.0810811 132.334972,17.2432432 C132.603581,17.4054054 132.603581,17.7837838 132.603581,18.7567568 L132.603581,29.8918919 C132.603581,38.4864865 139.479986,39.6756757 142.219803,39.6756757 C147.645716,39.6756757 153.770014,36.5405405 153.770014,32.972973 C153.770014,32 153.017907,30.4864865 151.943469,30.4864865 C150.976475,30.4864865 150.00948,31.7297297 148.344101,31.7297297 C146.89361,31.7297297 145.389396,30.8648649 145.389396,27.2432432 L145.389396,19.1891892 L145.389396,19.1891892 Z M169.492626,27.2972973 C170.99684,27.2972973 170.943118,28.6486486 170.943118,29.8378378 C170.943118,31.4594595 170.781952,33.6756757 168.74052,33.6756757 C167.182584,33.6756757 166.430478,32.1621622 166.430478,30.7567568 C166.430478,29.027027 167.666081,27.2972973 169.492626,27.2972973 L169.492626,27.2972973 L169.492626,27.2972973 Z M182.547051,20.5945946 C182.547051,12.4864865 174.166433,11.2972973 171.104284,11.2972973 C166.000702,11.2972973 156.921699,14.2702703 156.921699,18.8648649 C156.921699,20.5945946 158.211025,21.8378378 159.930126,21.8378378 C164.711376,21.8378378 165.033708,16 168.257022,16 C170.72823,16 170.781952,19.7297297 170.781952,21.5135135 C170.781952,23.4594595 170.029846,23.3513514 168.364466,23.3513514 C158.90941,23.3513514 155.25632,28.1081081 155.25632,31.9459459 C155.25632,37.2972973 159.715239,39.6756757 164.174157,39.6756757 C166.645365,39.6756757 168.257022,38.972973 169.438904,38.2702703 C170.620787,37.6216216 171.319171,36.9189189 171.963834,36.9189189 C173.306882,36.9189189 173.414326,39.6756757 177.658357,39.6756757 C181.580056,39.6756757 185.770365,36.3243243 185.770365,33.2432432 C185.770365,30.3243243 182.547051,35.5135135 182.547051,26 L182.547051,20.5945946 L182.547051,20.5945946 Z M186.00316,25.4054054 C186.00316,33.6756757 192.557233,39.6756757 200.669242,39.6756757 C208.190309,39.6756757 213.025281,35.5675676 213.025281,32.3783784 C213.025281,31.0810811 212.058287,29.4594595 210.607795,29.4594595 C209.479635,29.4594595 208.351475,30.8648649 204.966994,30.8648649 C200.722963,30.8648649 197.768258,26.8108108 197.768258,22.8108108 C197.768258,20.6486486 199.057584,18.2162162 201.421348,18.2162162 C205.665379,18.2162162 202.979284,24.9189189 208.78125,24.9189189 C211.789677,24.9189189 214.045997,22.5945946 214.045997,19.5675676 C214.045997,15.7837838 209.801966,11.2972973 201.74368,11.2972973 C192.718399,11.2972973 186.00316,17.6216216 186.00316,25.4054054 L186.00316,25.4054054 L186.00316,25.4054054 Z M238.13132,37.1351351 C239.420646,38.8108108 239.689256,38.9189189 241.838132,38.9189189 L249.412921,38.9189189 C253.549508,38.9189189 254.785112,37.4594595 254.785112,35.7837838 C254.785112,33.5135135 251.830407,33.5675676 249.412921,30.5405405 C248.392205,29.2972973 242.106742,21.5135135 242.106742,20.1621622 C242.106742,19.5135135 244.201896,18.4324324 244.739115,18.1621622 C247.96243,16.1621622 249.95014,17.2972973 249.95014,14.8648649 C249.95014,11.5135135 244.094452,11.4594595 241.891854,11.4594595 C240.011587,11.4594595 234.531952,11.6216216 234.531952,14.4324324 C234.531952,15.5135135 235.60639,15.9459459 235.60639,16.7027027 C235.60639,17.5135135 232.168188,19.3513514 231.308638,19.3513514 C230.019312,19.3513514 230.019312,18 230.126756,14.5405405 L230.395365,3.08108108 C230.449087,1.89189189 230.341643,1.02702703 228.891152,1.02702703 C226.04389,1.02702703 213.902739,3.67567568 213.902739,7.2972973 C213.902739,10.3783784 218.039326,7.45945946 218.039326,11.8378378 L218.039326,19.5675676 C218.039326,21.9459459 217.770716,27.0810811 217.609551,30.8648649 C217.448385,35.4054054 214.601124,33.5135135 214.601124,36.1081081 C214.601124,39.6756757 219.597261,39.5135135 224.002458,39.5135135 C232.383076,39.5135135 232.759129,37.2972973 232.759129,35.7837838 C232.759129,33.2432432 230.395365,34.8648649 230.556531,30.0540541 C230.556531,29.7297297 230.502809,28.5405405 231.09375,28.5405405 C231.630969,28.5405405 232.920295,30.3783784 233.135183,30.7027027 L238.13132,37.1351351 L238.13132,37.1351351 Z" id="TorStack"></path>
            </g>
        </g>
    </g>
</svg>