<?xml version="1.0" encoding="UTF-8"?>
<svg width="300px" height="47px" viewBox="0 0 300 47" version="1.1" xmlns="http://www.w3.org/2000/svg" xmlns:xlink="http://www.w3.org/1999/xlink">
    <!-- Generator: Sketch 40.2 (33826) - http://www.bohemiancoding.com/sketch -->
    <title>logo</title>
    <desc>Created with Sketch.</desc>
    <defs></defs>
    <g id="Page-1" stroke="none" stroke-width="1" fill="none" fill-rule="evenodd">
        <g id="logo" fill="#000000">
            <g id="Page-1">
                <g id="logo">
                    <g id="Page-1">
                        <g id="spiral" transform="translate(37.921348, 9.750927)">
                            <g id="Layer_4">
                                <path d="M21.8856499,0.217766194 C18.1068784,-0.744329285 18.7472564,2.62800451 19.7712728,3.24390032 C20.7727855,3.84616511 29.2355699,5.70790805 30.8352541,17.8430554 C32.647464,31.5885028 11.5361877,40.9391012 4.73410942,25.9010649 C-1.3617136,12.4253607 13.4228655,4.77024466 21.2723046,11.0992368 C27.4762112,16.1021521 24.2493431,26.6150192 17.5909716,27.1696933 C7.93753998,27.9734048 9.54623515,19.4786366 10.0260984,17.9291336 C10.8277848,15.3422581 15.0839452,13.413492 17.6962073,16.0169229 C19.1214638,17.4369075 18.4942053,20.0117558 17.2973951,20.7042022 C17.4849424,20.3286181 17.5909716,19.9050659 17.5909716,19.4558553 C17.5909716,17.9213041 16.3597521,16.6774851 14.8407453,16.6774851 C13.4027896,16.6774851 12.2232074,17.7926819 12.1015841,19.2135155 C11.5680759,20.3414473 12.0872508,25.2422007 16.8027782,24.6784235 C23.3235589,23.8982951 24.5723801,16.3085513 18.7320359,12.3744685 C14.5090709,9.52992407 6.44388498,12.5258247 6.04259827,19.3789273 C5.64135821,26.2319827 10.8724189,32.5634747 19.5398852,30.3062906 C30.2231227,27.5245715 31.4407559,9.1017968 19.1342096,5.917656 C5.422343,2.37033573 -0.293483224,14.3901146 0.0201693847,20.7356621 C0.278122742,25.9474292 3.03651954,36.7995153 15.8504752,36.84088 C25.9714911,36.8731418 32.7322034,30.5255189 33.9597346,21.2418966 C35.5204808,9.43931786 25.3450262,1.0984057 21.8856499,0.217766194 L21.8856499,0.217766194 L21.8856499,0.217766194 L21.8856499,0.217766194 Z" id="Shape"></path>
                            </g>
                        </g>
                        <path d="M15.9269662,1.20826709 C13.3988764,1.20826709 11.6924157,0.953895072 10.491573,0.763116058 C9.29073034,0.508744038 8.59550562,0.317965024 8.15308988,0.317965024 C4.5505618,0.317965024 0,7.37678855 0,12.782194 C0,15.0715421 1.45365168,17.3608904 3.91853933,17.3608904 C9.03792135,17.3608904 10.4283708,9.85691574 13.2724719,9.85691574 C14.1573034,9.85691574 15.4845506,9.79332273 15.2317415,16.4705882 L14.7261236,30.5246422 C14.6629213,32.1144674 14.4101124,35.9300476 13.7780899,37.2655008 C12.5140449,39.6820349 8.59550562,38.3465819 8.59550562,41.7170112 C8.59550562,46.6136725 20.4143259,46.4864865 23.6376405,46.4864865 C35.4564607,46.4864865 36.6573034,43.6883942 36.6573034,41.7170112 C36.6573034,37.2655008 30.8426966,40.8903021 30.8426966,33.3227345 L30.8426966,13.799682 C30.8426966,13.290938 30.5898876,9.85691574 33.0547753,9.85691574 C36.2780899,9.85691574 36.2148876,17.3608904 41.7134832,17.3608904 C44.9367978,17.3608904 46.5800562,15.2623212 46.5800562,12.0826709 C46.5800562,5.21462639 41.4606741,0.317965024 38.9957865,0.317965024 C37.7949438,0.317965024 37.2893259,0.508744038 36.4044944,0.763116058 C35.4564607,0.953895072 34.1924158,1.20826709 31.4747191,1.20826709 L15.9269662,1.20826709 L15.9269662,1.20826709 L15.9269662,1.20826709 Z M76.2851124,30.3338633 C76.2851124,32.1144674 76.0955056,35.7392687 75.5898876,37.3290938 C74.8946629,39.5548489 71.9873595,39.5548489 71.9873595,42.2257552 C71.9873595,46.6136725 80.5828652,46.4864865 83.4901686,46.4864865 C90.4424158,46.4864865 96.0042135,46.1685214 96.0042135,42.1621621 C96.0042135,38.3465819 91.2008427,40.0635931 90.8216292,37.2655008 C90.505618,34.8489666 90.3160113,32.1780605 90.3160113,30.2702702 C90.3160113,29.1255962 90,24.8648648 91.7696629,24.8648648 C93.4129213,24.8648648 94.5505618,28.4896661 98.6587079,28.4896661 C102.830056,28.4896661 106.432584,25.1192369 106.432584,20.8585055 C106.432584,16.6613673 103.651685,13.4817171 99.4171348,13.4817171 C93.9817415,13.4817171 93.0337079,18.5055644 91.5168539,18.5055644 C90.4424158,18.5055644 90.505618,17.0429253 90.4424158,16.2798092 C90.1896067,14.1176471 90.1264045,13.4817171 87.7247191,13.4817171 C87.1558988,13.4817171 72.3665731,14.8807631 72.3665731,19.9046105 C72.3665731,23.7837838 76.2851124,20.2861685 76.2851124,26.5182829 L76.2851124,30.3338633 L76.2851124,30.3338633 L76.2851124,30.3338633 Z M118.356741,26.3910969 C125.372191,32.0508744 134.030899,30.9062004 134.030899,35.4848967 C134.030899,37.9014308 130.554775,38.6009539 129.164326,38.6009539 C117.535112,38.6009539 118.293539,28.4896661 113.80618,28.4896661 C111.910112,28.4896661 111.151685,30.2066773 111.151685,31.9236884 C111.151685,35.1669316 112.605337,41.9077901 115.639045,43.6248013 C119.241573,45.5961845 126.383427,46.6772655 130.554775,46.6772655 C145.280899,46.6772655 151.348314,38.2829888 151.348314,30.8426073 C151.348314,26.073132 149.389045,22.8934818 145.470506,20.2861685 C138.139045,15.3895072 129.480338,16.7249602 129.480338,11.7011129 C129.480338,9.41176471 131.566012,8.52146264 133.525281,8.52146264 C140.098314,8.52146264 142.563202,15.7710652 146.797753,15.7710652 C149.136236,15.7710652 150.526686,13.6089031 150.526686,11.4467409 C150.526686,6.10492846 145.723314,1.20826709 143.574438,1.20826709 C142.247191,1.20826709 141.36236,2.09856915 140.477528,2.09856915 C139.529494,2.09856915 134.978933,0.317965024 130.933988,0.317965024 C118.672753,0.317965024 112.352528,8.52146264 112.352528,15.1351352 C112.352528,19.7138315 114.880618,23.5930048 118.356741,26.3910969 L118.356741,26.3910969 L118.356741,26.3910969 L118.356741,26.3910969 Z M171.046348,22.5755167 C171.046348,20.2861685 171.172753,20.2225755 173.384832,20.2225755 L177.745787,20.2225755 C180.210674,20.2225755 180.653089,19.9682035 180.653089,16.3434022 C180.653089,13.4817171 180.653089,13.290938 177.935393,13.290938 L173.511236,13.290938 C171.867978,13.290938 171.425562,13.290938 171.235955,12.782194 C170.919944,12.0190779 171.046348,10.0476948 171.046348,8.0763116 C171.046348,5.15103339 170.919944,5.4054054 168.391854,5.4054054 C166.495787,5.4054054 166.558988,5.21462639 165.105338,6.10492846 L150.695225,15.3259141 C149.936798,15.8346582 150.126405,16.5341813 150.126405,17.4244833 C150.126405,18.8871225 150,19.5230525 150.442415,19.9682035 C150.758427,20.2861685 151.580056,20.2225755 153.223314,20.2225755 C154.676966,20.2225755 155.372191,20.0953895 155.688202,20.2861685 C156.004213,20.4769475 156.004213,20.9220986 156.004213,22.0667727 L156.004213,35.1669316 C156.004213,45.2782194 164.094101,46.6772655 167.317415,46.6772655 C173.700842,46.6772655 180.905899,42.9888712 180.905899,38.7917329 C180.905899,37.6470588 180.021067,35.8664547 178.757022,35.8664547 C177.619382,35.8664547 176.481741,37.3290938 174.522472,37.3290938 C172.816012,37.3290938 171.046348,36.3116058 171.046348,32.0508744 L171.046348,22.5755167 L171.046348,22.5755167 L171.046348,22.5755167 Z M199.403089,32.1144674 C201.172753,32.1144674 201.109551,33.7042925 201.109551,35.1033386 C201.109551,37.0111288 200.919944,39.618442 198.518259,39.618442 C196.685393,39.618442 195.800562,37.8378379 195.800562,36.1844198 C195.800562,34.1494435 197.254213,32.1144674 199.403089,32.1144674 L199.403089,32.1144674 L199.403089,32.1144674 L199.403089,32.1144674 Z M214.761236,24.2289348 C214.761236,14.6899841 204.901686,13.290938 201.299158,13.290938 C195.294944,13.290938 184.613764,16.7885533 184.613764,22.1939587 C184.613764,24.2289348 186.130618,25.6915739 188.153089,25.6915739 C193.778089,25.6915739 194.157304,18.8235294 197.949438,18.8235294 C200.856741,18.8235294 200.919944,23.2114467 200.919944,25.3100159 C200.919944,27.5993641 200.035113,27.4721781 198.075842,27.4721781 C186.952247,27.4721781 182.654494,33.0683625 182.654494,37.5834658 C182.654494,43.8791733 187.900281,46.6772655 193.146067,46.6772655 C196.053371,46.6772655 197.949438,45.8505565 199.339887,45.0238474 C200.730338,44.2607313 201.551966,43.4340222 202.310393,43.4340222 C203.890449,43.4340222 204.016854,46.6772655 209.009832,46.6772655 C213.623595,46.6772655 218.553371,42.7344992 218.553371,39.1096979 C218.553371,35.6756756 214.761236,41.7806041 214.761236,30.5882353 L214.761236,24.2289348 L214.761236,24.2289348 L214.761236,24.2289348 Z M218.827247,29.8887122 C218.827247,39.618442 226.537921,46.6772655 236.081461,46.6772655 C244.929775,46.6772655 250.617978,41.8441972 250.617978,38.0922099 C250.617978,36.5659778 249.480338,34.6581876 247.773876,34.6581876 C246.446629,34.6581876 245.119382,36.3116058 241.13764,36.3116058 C236.144662,36.3116058 232.668539,31.5421304 232.668539,26.836248 C232.668539,24.2925278 234.185393,21.4308426 236.966292,21.4308426 C241.959269,21.4308426 238.799158,29.3163752 245.625,29.3163752 C249.164326,29.3163752 251.81882,26.581876 251.81882,23.0206678 C251.81882,18.5691574 246.825842,13.290938 237.345506,13.290938 C226.727528,13.290938 218.827247,20.7313195 218.827247,29.8887122 L218.827247,29.8887122 L218.827247,29.8887122 L218.827247,29.8887122 Z M280.154494,43.6883942 C281.671348,45.6597774 281.98736,45.7869634 284.515449,45.7869634 L293.426966,45.7869634 C298.293539,45.7869634 299.747191,44.0699524 299.747191,42.0985692 C299.747191,39.4276629 296.271067,39.491256 293.426966,35.9300476 C292.226124,34.4674086 284.831461,25.3100159 284.831461,23.7201908 C284.831461,22.9570747 287.296348,21.6852146 287.928371,21.3672496 C291.720506,19.0143085 294.058988,20.3497615 294.058988,17.4880764 C294.058988,13.54531 287.169944,13.4817171 284.578652,13.4817171 C282.366573,13.4817171 275.919944,13.672496 275.919944,16.9793322 C275.919944,18.2511924 277.183988,18.7599364 277.183988,19.6502385 C277.183988,20.6041335 273.139045,22.7662958 272.127809,22.7662958 C270.610955,22.7662958 270.610955,21.1764706 270.73736,17.1065182 L271.053371,3.62480127 C271.116573,2.22575516 270.990168,1.20826709 269.283708,1.20826709 C265.933988,1.20826709 251.650281,4.32432433 251.650281,8.58505565 C251.650281,12.2098569 256.516854,8.77583466 256.516854,13.926868 L256.516854,23.0206678 C256.516854,25.8187599 256.200842,31.8600954 256.011236,36.3116058 C255.821629,41.6534181 252.471911,39.4276629 252.471911,42.4801272 C252.471911,46.6772655 258.349719,46.4864865 263.532304,46.4864865 C273.391854,46.4864865 273.834269,43.8791733 273.834269,42.0985692 C273.834269,39.1096979 271.053371,41.0174881 271.242978,35.3577107 C271.242978,34.9761526 271.179775,33.5771065 271.875,33.5771065 C272.507022,33.5771065 274.023876,35.7392687 274.276686,36.1208267 L280.154494,43.6883942 L280.154494,43.6883942 L280.154494,43.6883942 Z" id="TorStack"></path>
                    </g>
                </g>
            </g>
        </g>
    </g>
</svg>